<svg t="1683105773979" class="icon" viewBox="0 0 1024 1024" version="1.1" xmlns="http://www.w3.org/2000/svg" p-id="2362" width="32" height="32"><path d="M666.428952 121.904762a48.761905 48.761905 0 0 1 45.007238 67.535238l-79.652571 190.902857h130.364952a48.761905 48.761905 0 0 1 37.936762 79.408762L450.096762 893.415619a48.761905 48.761905 0 0 1-85.74781-40.252952l46.567619-231.277715h-156.696381a48.761905 48.761905 0 0 1-45.104761-67.291428l165.180952-402.432A48.761905 48.761905 0 0 1 419.401143 121.904762h247.027809z m-230.66819 73.142857l-145.188572 353.694476h209.700572l-44.568381 221.232762 255.439238-316.464762H521.99619L629.833143 195.047619h-194.072381z" p-id="2363" fill="#5e72e9"></path></svg>